<svg xmlns="http://www.w3.org/2000/svg" xmlns:xlink="http://www.w3.org/1999/xlink" width="1585" zoomAndPan="magnify" viewBox="0 0 1188.75 296.999993" height="396" preserveAspectRatio="xMidYMid meet" version="1.0"><defs><g/><clipPath id="7894357e25"><path d="M 0 0.03125 L 1188.5 0.03125 L 1188.5 296.96875 L 0 296.96875 Z M 0 0.03125 " clip-rule="nonzero"/></clipPath><clipPath id="06a75446eb"><path d="M 0 27 L 242 27 L 242 269 L 0 269 Z M 0 27 " clip-rule="nonzero"/></clipPath><clipPath id="4aa8734b48"><path d="M 241.328125 28.128906 L 240.976562 268.828125 L 0.277344 268.476562 L 0.628906 27.777344 Z M 241.328125 28.128906 " clip-rule="nonzero"/></clipPath><clipPath id="d7c8a638f0"><path d="M 241.328125 28.128906 L 240.976562 268.828125 L 0.277344 268.476562 L 0.628906 27.777344 Z M 241.328125 28.128906 " clip-rule="nonzero"/></clipPath></defs><g clip-path="url(#7894357e25)"><path fill="#ffffff" d="M 0 0.03125 L 1188.5 0.03125 L 1188.5 296.96875 L 0 296.96875 Z M 0 0.03125 " fill-opacity="1" fill-rule="nonzero"/></g><g fill="#000000" fill-opacity="1"><g transform="translate(273.668559, 215.004675)"><g><path d="M 28.125 0 L 1.25 0 L 49.125 -135.8125 L 77.25 -135.8125 L 125.140625 0 L 98.25 0 L 89 -27.953125 L 37.203125 -27.953125 Z M 63.1875 -107.875 L 44.5 -50.375 L 81.875 -50.375 Z M 63.1875 -107.875 "/></g></g></g><g fill="#000000" fill-opacity="1"><g transform="translate(400.044179, 215.004675)"><g><path d="M 45.75 1.953125 C 30.320312 1.953125 19.9375 -3.5625 14.59375 -14.59375 C 13.050781 -17.914062 11.953125 -21.5625 11.296875 -25.53125 C 10.648438 -29.507812 10.328125 -35.117188 10.328125 -42.359375 L 10.328125 -99.859375 L 34.359375 -99.859375 L 34.359375 -42.1875 C 34.359375 -37.082031 34.742188 -32.957031 35.515625 -29.8125 C 36.285156 -26.664062 37.5 -24.144531 39.15625 -22.25 C 42.007812 -19.28125 46.222656 -17.796875 51.796875 -17.796875 C 58.679688 -17.796875 63.785156 -19.816406 67.109375 -23.859375 C 69.117188 -26.222656 70.566406 -29.394531 71.453125 -33.375 C 72.347656 -37.351562 72.796875 -42.601562 72.796875 -49.125 L 72.796875 -99.859375 L 96.828125 -99.859375 L 96.828125 0 L 72.796875 0 L 72.796875 -12.640625 C 69.117188 -7.535156 65.171875 -3.828125 60.953125 -1.515625 C 56.742188 0.796875 51.675781 1.953125 45.75 1.953125 Z M 45.75 1.953125 "/></g></g></g><g fill="#000000" fill-opacity="1"><g transform="translate(507.908433, 215.004675)"><g><path d="M 61.9375 0 L 42.1875 0 C 34.832031 0 29.109375 -1.71875 25.015625 -5.15625 C 20.921875 -8.601562 18.875 -14.179688 18.875 -21.890625 L 18.875 -80.640625 L 4.09375 -80.640625 L 4.09375 -99.859375 L 18.875 -99.859375 L 18.875 -135.8125 L 42.890625 -135.8125 L 42.890625 -99.859375 L 62.125 -99.859375 L 62.125 -80.640625 L 42.890625 -80.640625 L 42.890625 -29.1875 C 42.890625 -26.582031 43.332031 -24.390625 44.21875 -22.609375 C 45.113281 -20.828125 47.40625 -19.9375 51.09375 -19.9375 L 61.9375 -19.9375 Z M 61.9375 0 "/></g></g></g><g fill="#000000" fill-opacity="1"><g transform="translate(576.080075, 215.004675)"><g><path d="M 57.84375 1.953125 C 47.875 1.953125 39.035156 -0.238281 31.328125 -4.625 C 23.617188 -9.019531 17.597656 -15.160156 13.265625 -23.046875 C 8.929688 -30.941406 6.765625 -40.109375 6.765625 -50.546875 C 6.765625 -60.640625 8.929688 -69.539062 13.265625 -77.25 C 17.597656 -84.96875 23.585938 -91.019531 31.234375 -95.40625 C 38.890625 -99.800781 47.757812 -102 57.84375 -102 C 67.9375 -102 76.835938 -99.800781 84.546875 -95.40625 C 92.265625 -91.019531 98.285156 -84.96875 102.609375 -77.25 C 106.941406 -69.539062 109.109375 -60.640625 109.109375 -50.546875 C 109.109375 -40.222656 106.972656 -31.113281 102.703125 -23.21875 C 98.429688 -15.332031 92.4375 -9.164062 84.71875 -4.71875 C 77.007812 -0.269531 68.050781 1.953125 57.84375 1.953125 Z M 57.84375 -18.6875 C 65.675781 -18.6875 72.023438 -21.648438 76.890625 -27.578125 C 81.753906 -33.515625 84.1875 -41.171875 84.1875 -50.546875 C 84.1875 -56.484375 83.085938 -61.765625 80.890625 -66.390625 C 78.703125 -71.023438 75.648438 -74.675781 71.734375 -77.34375 C 67.816406 -80.007812 63.1875 -81.34375 57.84375 -81.34375 C 52.75 -81.34375 48.179688 -80.035156 44.140625 -77.421875 C 40.109375 -74.816406 36.960938 -71.195312 34.703125 -66.5625 C 32.453125 -61.9375 31.328125 -56.597656 31.328125 -50.546875 C 31.328125 -41.054688 33.816406 -33.375 38.796875 -27.5 C 43.785156 -21.625 50.132812 -18.6875 57.84375 -18.6875 Z M 57.84375 -18.6875 "/></g></g></g><g fill="#000000" fill-opacity="1"><g transform="translate(692.132034, 215.004675)"><g><path d="M 51.625 0 L 12.109375 0 L 12.109375 -135.8125 L 51.625 -135.8125 C 74.644531 -135.8125 92.234375 -129.9375 104.390625 -118.1875 C 116.554688 -106.4375 122.640625 -89.644531 122.640625 -67.8125 C 122.640625 -46.101562 116.523438 -29.375 104.296875 -17.625 C 92.078125 -5.875 74.519531 0 51.625 0 Z M 37.734375 -112.859375 L 37.734375 -22.96875 L 51.265625 -22.96875 C 60.285156 -22.96875 68.234375 -24.359375 75.109375 -27.140625 C 81.992188 -29.929688 87.363281 -34.617188 91.21875 -41.203125 C 95.082031 -47.796875 97.015625 -56.664062 97.015625 -67.8125 C 97.015625 -78.375 95.113281 -86.945312 91.3125 -93.53125 C 87.519531 -100.125 82.207031 -104.992188 75.375 -108.140625 C 68.550781 -111.285156 60.570312 -112.859375 51.4375 -112.859375 Z M 37.734375 -112.859375 "/></g></g></g><g fill="#000000" fill-opacity="1"><g transform="translate(821.711543, 215.004675)"><g><path d="M 39.6875 1.953125 C 30.3125 1.953125 22.507812 -0.566406 16.28125 -5.609375 C 10.050781 -10.648438 6.9375 -17.914062 6.9375 -27.40625 C 6.9375 -32.75 7.972656 -37.289062 10.046875 -41.03125 C 12.128906 -44.769531 14.890625 -47.828125 18.328125 -50.203125 C 21.535156 -52.453125 25.1875 -54.226562 29.28125 -55.53125 C 33.375 -56.84375 37.5 -57.910156 41.65625 -58.734375 L 71.375 -64.265625 C 71.132812 -70.429688 69.535156 -75.113281 66.578125 -78.3125 C 63.609375 -81.519531 59.15625 -83.125 53.21875 -83.125 C 48.707031 -83.125 44.703125 -81.785156 41.203125 -79.109375 C 37.703125 -76.441406 35.476562 -72.738281 34.53125 -68 L 10.6875 -68 C 11.863281 -75.832031 14.585938 -82.238281 18.859375 -87.21875 C 23.140625 -92.207031 28.332031 -95.914062 34.4375 -98.34375 C 40.550781 -100.78125 46.875 -102 53.40625 -102 C 59.21875 -102 64.789062 -101.164062 70.125 -99.5 C 75.46875 -97.84375 79.976562 -95.289062 83.65625 -91.84375 C 87.570312 -88.40625 90.359375 -84.460938 92.015625 -80.015625 C 93.679688 -75.566406 94.660156 -70.9375 94.953125 -66.125 C 95.253906 -61.320312 95.40625 -56.601562 95.40625 -51.96875 L 95.40625 0 L 71.375 0 L 71.375 -13.53125 C 68.882812 -9.132812 65.859375 -5.8125 62.296875 -3.5625 C 59.210938 -1.539062 55.742188 -0.117188 51.890625 0.703125 C 48.035156 1.535156 43.96875 1.953125 39.6875 1.953125 Z M 45.5625 -16.90625 C 50.3125 -16.90625 54.585938 -17.859375 58.390625 -19.765625 C 63.609375 -22.367188 67.132812 -25.863281 68.96875 -30.25 C 70.8125 -34.644531 71.789062 -40.109375 71.90625 -46.640625 L 48.0625 -41.828125 C 44.613281 -41.234375 41.789062 -40.460938 39.59375 -39.515625 C 37.40625 -38.566406 35.597656 -37.441406 34.171875 -36.140625 C 33.222656 -35.179688 32.453125 -34.050781 31.859375 -32.75 C 31.265625 -31.445312 30.96875 -29.960938 30.96875 -28.296875 C 30.96875 -24.617188 32.363281 -21.800781 35.15625 -19.84375 C 37.945312 -17.882812 41.414062 -16.90625 45.5625 -16.90625 Z M 45.5625 -16.90625 "/></g></g></g><g fill="#000000" fill-opacity="1"><g transform="translate(926.905892, 215.004675)"><g><path d="M 54.109375 1.953125 C 46.515625 1.953125 39.273438 0.738281 32.390625 -1.6875 C 25.515625 -4.125 19.734375 -7.984375 15.046875 -13.265625 C 10.359375 -18.546875 7.421875 -25.335938 6.234375 -33.640625 L 29.90625 -33.640625 C 31.445312 -28.179688 34.289062 -24.023438 38.4375 -21.171875 C 42.59375 -18.328125 47.757812 -16.90625 53.9375 -16.90625 C 59.039062 -16.90625 63.253906 -17.914062 66.578125 -19.9375 C 69.898438 -21.957031 71.5625 -24.804688 71.5625 -28.484375 C 71.5625 -31.453125 70.460938 -33.796875 68.265625 -35.515625 C 66.066406 -37.234375 63.1875 -38.566406 59.625 -39.515625 C 56.070312 -40.460938 52.15625 -41.351562 47.875 -42.1875 C 43.601562 -43.019531 39.242188 -44.023438 34.796875 -45.203125 C 30.347656 -46.390625 26.285156 -48.019531 22.609375 -50.09375 C 18.929688 -52.175781 15.960938 -54.96875 13.703125 -58.46875 C 11.453125 -61.96875 10.328125 -66.507812 10.328125 -72.09375 C 10.328125 -79.09375 12.101562 -84.785156 15.65625 -89.171875 C 19.21875 -93.566406 23.9375 -96.800781 29.8125 -98.875 C 35.6875 -100.957031 42.066406 -102 48.953125 -102 C 60.578125 -102 70.304688 -99.0625 78.140625 -93.1875 C 85.972656 -87.3125 90.78125 -78.914062 92.5625 -68 L 69.953125 -68 C 68.523438 -73.457031 65.851562 -77.34375 61.9375 -79.65625 C 58.019531 -81.96875 53.628906 -83.125 48.765625 -83.125 C 44.023438 -83.125 40.257812 -82.203125 37.46875 -80.359375 C 34.675781 -78.523438 33.28125 -76.066406 33.28125 -72.984375 C 33.28125 -70.253906 34.347656 -68.117188 36.484375 -66.578125 C 38.617188 -65.035156 41.4375 -63.847656 44.9375 -63.015625 C 48.445312 -62.179688 52.21875 -61.347656 56.25 -60.515625 C 60.632812 -59.691406 65.113281 -58.710938 69.6875 -57.578125 C 74.257812 -56.453125 78.472656 -54.847656 82.328125 -52.765625 C 86.179688 -50.691406 89.296875 -47.84375 91.671875 -44.21875 C 94.046875 -40.601562 95.234375 -35.953125 95.234375 -30.265625 C 95.234375 -20.523438 91.613281 -12.71875 84.375 -6.84375 C 77.132812 -0.976562 67.046875 1.953125 54.109375 1.953125 Z M 54.109375 1.953125 "/></g></g></g><g fill="#000000" fill-opacity="1"><g transform="translate(1029.430346, 215.004675)"><g><path d="M 35.0625 0 L 11.03125 0 L 11.03125 -135.8125 L 35.0625 -135.8125 L 35.0625 -87.21875 C 39.101562 -92.800781 43.285156 -96.660156 47.609375 -98.796875 C 51.941406 -100.929688 56.78125 -102 62.125 -102 C 71.257812 -102 78.195312 -100.363281 82.9375 -97.09375 C 87.6875 -93.832031 91.128906 -89.890625 93.265625 -85.265625 C 95.398438 -80.867188 96.644531 -76.382812 97 -71.8125 C 97.363281 -67.25 97.546875 -62.476562 97.546875 -57.5 L 97.546875 0 L 73.515625 0 L 73.515625 -57.84375 C 73.515625 -67.582031 71.910156 -74.226562 68.703125 -77.78125 C 65.859375 -80.75 61.644531 -82.234375 56.0625 -82.234375 C 49.1875 -82.234375 44.085938 -80.21875 40.765625 -76.1875 C 38.742188 -73.8125 37.285156 -70.664062 36.390625 -66.75 C 35.503906 -62.832031 35.0625 -57.550781 35.0625 -50.90625 Z M 35.0625 0 "/></g></g></g><g clip-path="url(#06a75446eb)"><g clip-path="url(#4aa8734b48)"><g clip-path="url(#d7c8a638f0)"><path fill="#fa7272" d="M 241.242188 87.71875 L 241.0625 209.167969 C 241.058594 211.117188 240.960938 213.066406 240.769531 215.007812 C 240.574219 216.949219 240.285156 218.875 239.902344 220.789062 C 239.519531 222.703125 239.042969 224.59375 238.472656 226.460938 C 237.902344 228.328125 237.242188 230.160156 236.492188 231.964844 C 235.746094 233.765625 234.910156 235.527344 233.984375 237.246094 C 233.0625 238.964844 232.058594 240.636719 230.972656 242.257812 C 229.886719 243.878906 228.722656 245.445312 227.480469 246.949219 C 226.242188 248.457031 224.929688 249.898438 223.546875 251.277344 C 222.167969 252.65625 220.71875 253.960938 219.210938 255.199219 C 217.699219 256.433594 216.132812 257.59375 214.507812 258.675781 C 212.882812 259.757812 211.210938 260.757812 209.488281 261.675781 C 207.765625 262.59375 206 263.421875 204.195312 264.167969 C 202.394531 264.910156 200.554688 265.566406 198.6875 266.128906 C 196.820312 266.691406 194.929688 267.164062 193.011719 267.542969 C 191.097656 267.917969 189.167969 268.203125 187.226562 268.390625 C 185.285156 268.578125 183.335938 268.671875 181.386719 268.667969 L 59.9375 268.492188 C 57.984375 268.488281 56.039062 268.390625 54.097656 268.195312 C 52.15625 268.003906 50.226562 267.714844 48.3125 267.332031 C 46.398438 266.945312 44.511719 266.46875 42.644531 265.902344 C 40.777344 265.332031 38.941406 264.671875 37.140625 263.921875 C 35.339844 263.171875 33.578125 262.335938 31.855469 261.414062 C 30.136719 260.492188 28.46875 259.488281 26.847656 258.402344 C 25.226562 257.3125 23.660156 256.152344 22.152344 254.910156 C 20.648438 253.671875 19.203125 252.359375 17.828125 250.976562 C 16.449219 249.59375 15.140625 248.148438 13.90625 246.636719 C 12.667969 245.128906 11.511719 243.558594 10.429688 241.9375 C 9.347656 240.3125 8.347656 238.636719 7.429688 236.914062 C 6.511719 235.191406 5.679688 233.429688 4.9375 231.625 C 4.191406 229.820312 3.539062 227.984375 2.976562 226.117188 C 2.410156 224.25 1.941406 222.355469 1.5625 220.441406 C 1.183594 218.527344 0.902344 216.597656 0.714844 214.65625 C 0.523438 212.714844 0.433594 210.765625 0.433594 208.816406 L 0.613281 87.367188 C 0.613281 85.414062 0.714844 83.46875 0.90625 81.527344 C 1.101562 79.585938 1.390625 77.65625 1.773438 75.742188 C 2.15625 73.828125 2.632812 71.9375 3.203125 70.070312 C 3.773438 68.207031 4.433594 66.371094 5.179688 64.570312 C 5.929688 62.765625 6.765625 61.007812 7.691406 59.285156 C 8.613281 57.566406 9.617188 55.894531 10.703125 54.273438 C 11.789062 52.652344 12.953125 51.089844 14.195312 49.582031 C 15.433594 48.074219 16.746094 46.632812 18.128906 45.253906 C 19.507812 43.878906 20.957031 42.570312 22.464844 41.335938 C 23.976562 40.097656 25.542969 38.941406 27.167969 37.859375 C 28.792969 36.777344 30.464844 35.777344 32.1875 34.859375 C 33.910156 33.941406 35.675781 33.109375 37.480469 32.367188 C 39.28125 31.621094 41.117188 30.96875 42.988281 30.402344 C 44.855469 29.839844 46.746094 29.371094 48.664062 28.992188 C 50.578125 28.613281 52.503906 28.332031 54.449219 28.140625 C 56.390625 27.953125 58.335938 27.859375 60.289062 27.863281 L 181.738281 28.039062 C 183.6875 28.042969 185.636719 28.140625 187.578125 28.335938 C 189.519531 28.53125 191.449219 28.820312 193.363281 29.203125 C 195.273438 29.585938 197.164062 30.0625 199.03125 30.632812 C 200.898438 31.203125 202.734375 31.859375 204.535156 32.609375 C 206.335938 33.359375 208.097656 34.195312 209.816406 35.117188 C 211.539062 36.039062 213.207031 37.046875 214.828125 38.132812 C 216.449219 39.21875 218.015625 40.382812 219.523438 41.621094 C 221.027344 42.863281 222.472656 44.175781 223.847656 45.554688 C 225.226562 46.9375 226.535156 48.382812 227.769531 49.894531 C 229.003906 51.40625 230.164062 52.972656 231.246094 54.597656 C 232.328125 56.222656 233.328125 57.894531 234.246094 59.617188 C 235.164062 61.339844 235.992188 63.101562 236.738281 64.90625 C 237.480469 66.710938 238.136719 68.546875 238.699219 70.417969 C 239.265625 72.285156 239.734375 74.175781 240.113281 76.089844 C 240.492188 78.003906 240.773438 79.933594 240.960938 81.875 C 241.152344 83.820312 241.242188 85.765625 241.242188 87.71875 Z M 241.242188 87.71875 " fill-opacity="1" fill-rule="nonzero"/></g></g></g><path stroke-linecap="butt" transform="matrix(0.749581, -0.0197743, 0.0197743, 0.749581, 0.326276, 204.359257)" fill="none" stroke-linejoin="miter" d="M -0.0018692 5.497969 L 87.473919 5.502256 " stroke="#ffffff" stroke-width="11" stroke-opacity="1" stroke-miterlimit="4"/><path stroke-linecap="round" transform="matrix(0.749581, -0.0197743, 0.0197743, 0.749581, 0.326276, 204.359257)" fill-opacity="1" fill="#ffffff" fill-rule="nonzero" stroke-linejoin="round" d="M 90.223105 -11.002179 L 112.222204 5.498512 L 90.222752 22.000605 Z M 90.223105 -11.002179 " stroke="#ffffff" stroke-width="11" stroke-opacity="1" stroke-miterlimit="4"/><path stroke-linecap="butt" transform="matrix(0.749842, 0.0000286453, -0.0000286453, 0.749842, 0.483307, 171.443861)" fill="none" stroke-linejoin="miter" d="M 0.00163499 5.497883 L 130.112331 5.498122 " stroke="#ffffff" stroke-width="11" stroke-opacity="1" stroke-miterlimit="4"/><path stroke-linecap="round" transform="matrix(0.749842, 0.0000286453, -0.0000286453, 0.749842, 0.483307, 171.443861)" fill-opacity="1" fill="#ffffff" fill-rule="nonzero" stroke-linejoin="round" d="M 132.862279 -11.000244 L 154.862328 5.502386 L 132.86354 22.001488 Z M 132.862279 -11.000244 " stroke="#ffffff" stroke-width="11" stroke-opacity="1" stroke-miterlimit="4"/><path stroke-linecap="butt" transform="matrix(0.749841, 0.00109611, -0.00109611, 0.749841, 0.596022, 136.987788)" fill="none" stroke-linejoin="miter" d="M -0.000197084 5.501821 L 163.107188 5.497816 " stroke="#ffffff" stroke-width="11" stroke-opacity="1" stroke-miterlimit="4"/><path stroke-linecap="round" transform="matrix(0.749841, 0.00109611, -0.00109611, 0.749841, 0.596022, 136.987788)" fill-opacity="1" fill="#ffffff" fill-rule="nonzero" stroke-linejoin="round" d="M 165.854492 -10.999269 L 187.857211 5.498103 L 165.855848 22.002496 Z M 165.854492 -10.999269 " stroke="#ffffff" stroke-width="11" stroke-opacity="1" stroke-miterlimit="4"/><path stroke-linecap="butt" transform="matrix(0.749841, 0.00109611, -0.00109611, 0.749841, 0.589994, 102.476634)" fill="none" stroke-linejoin="miter" d="M -0.00257717 5.501071 L 213.355019 5.501752 " stroke="#ffffff" stroke-width="11" stroke-opacity="1" stroke-miterlimit="4"/><path stroke-linecap="round" transform="matrix(0.749841, 0.00109611, -0.00109611, 0.749841, 0.589994, 102.476634)" fill-opacity="1" fill="#ffffff" fill-rule="nonzero" stroke-linejoin="round" d="M 216.107524 -11.00055 L 238.105042 5.502039 L 216.108881 22.001215 Z M 216.107524 -11.00055 " stroke="#ffffff" stroke-width="11" stroke-opacity="1" stroke-miterlimit="4"/></svg>